<?xml version="1.0" encoding="utf-8"?>
<!-- Generator: Adobe Illustrator 25.0.0, SVG Export Plug-In . SVG Version: 6.00 Build 0)  -->
<svg version="1.1" id="Layer_1" xmlns="http://www.w3.org/2000/svg" xmlns:xlink="http://www.w3.org/1999/xlink" x="0px" y="0px"
	 viewBox="0 0 465.4 465.4" style="enable-background:new 0 0 465.4 465.4;" xml:space="preserve">
<style type="text/css">
	.st0{display:none;}
	.st1{fill:#FFFFFF;}
</style>
<g id="Layer_1_1_" class="st0">
</g>
<g>
	<g id="Layer_16">
		<path class="st1" d="M163.5,245c0.5,3,0.8,4.8,1,6.8c0.4,2.7,1.6,4.1,4.8,4.4c6.9,0.4,12.9,4.6,15.7,10.9c1.5,3.1,3.3,3.9,6.5,3.9
			c17.6,0,35.1,0.2,52.7,0.3c1.6,0,3.1,0.2,5.3,0.3c-4,5.7-7.2,10.2-15.1,9.8c-14-0.8-28.1-0.4-42.2-0.6c-3.2,0-5.3,0.5-6.9,4
			c-4.5,10.2-16.3,14.8-26.5,10.3c-0.3-0.2-0.7-0.3-1-0.5c-10.2-5-14-17.2-9-27.9c1-2.2,1.4-4.6,1-6.9c-8.7-42.7-17.7-85.3-26.4-128
			c-0.5-3.1-2.6-5.7-5.6-6.7c-8.7-3.8-17.3-7.7-26-11.7c-2.9-1.3-4.8-9-2.9-11.5c0.4-0.5,1.1-0.9,1.8-0.9c5,0.3,10.4-0.2,15,1.4
			c9,3.4,17.9,7.3,26.4,11.8c2.5,1.4,4.3,3.7,5.2,6.4c1.9,7.3,3.5,14.7,4.6,22.2c0.6,3.4,2.1,4.2,5.3,4.2
			c26.4-0.2,52.7-0.3,79.1-0.3c3.8,0,5.1-1.5,6.1-4.8c5.7-19.2,22.7-31.2,41.5-30c19.2,1.2,35.1,14.7,38.6,32.5
			c3.9,19.6-5.4,37.9-23.8,46.3c-2.9,1.1-5.1,3.7-5.7,6.8c-3.8,14.1-8.1,28-11.9,42.1c-1.2,4.4-3.3,5.8-7.8,5.7
			c-30.9-0.2-61.9,0-92.8,0L163.5,245z M272.1,122.7c-16.7,1.2-29.3,15.7-28.1,32.4c1.1,15,13,27,28,28.1
			c16.7,1.3,31.3-11.3,32.5-28s-11.3-31.3-28-32.5C275.1,122.6,273.6,122.6,272.1,122.7z M203.3,189.2c0-7.4-0.2-14.2,0-21
			c0.2-4.3-1-5.8-5.5-5.7c-15.4,0.4-30.9,0.4-46.3,0.5c-1.5,0-3,0.3-5.2,0.5c1.6,7.5,3.2,14.5,4.4,21.5c0.6,3.2,1.9,4.3,5.2,4.3
			c9.5-0.2,19,0,28.4,0L203.3,189.2z M155,205.2c1.6,7.9,2.9,14.8,4.6,21.5c0.3,1.1,2.7,2.5,4.2,2.5c9.1,0.2,18.2,0.1,27.3,0.1
			c12.2,0,12.2,0,12.2-11.9s0-12.1-12.1-12.1L155,205.2z M219.4,229.2c12.4,0,23.7,0,35.1,0c1.3-0.1,2.5-0.8,3.2-2
			c2.2-7,4.1-14,6.4-21.9c-14.7,0-28.5,0-42.3,0.1c-0.8,0-2.2,1.8-2.2,2.7C219.3,214.9,219.4,221.7,219.4,229.2L219.4,229.2z
			 M219.4,188.9h31.4c-1.5-1-2.9-2.2-4.2-3.5c-4.5-5.9-9.2-11.8-13-18.1c-2.4-3.9-8.9-6.9-12.8-4.5c-0.8,0.6-1.2,1.6-1.3,2.6
			C219.4,173,219.5,180.7,219.4,188.9L219.4,188.9z M166.5,266.1c-5.6,0-10.1,4.6-10.1,10.1c0,0.1,0,0.3,0,0.4
			c0,5.7,4.7,10.3,10.4,10.3c5.9-0.1,10.7-4.8,10.8-10.7c-0.1-5.8-4.9-10.4-10.7-10.3C166.9,266,166.8,266,166.5,266.1L166.5,266.1z
			"/>
	</g>
	<g id="Layer_15">
		<path class="st1" d="M364.3,309.8c0,16.4-0.1,32.7,0.1,49c0,4.2-1.3,5.5-5.4,5.4c-9.7-0.2-19.4-0.4-29,0
			c-6.3,0.6-12.3-2.9-14.9-8.7c-2.3-4.6-4.8-4.9-8.6-2.3c-0.9,0.6-1.9,0.8-2.8,1.4c-13.5,8.4-28.2,10.2-43.9,9.7
			c-23.2-0.8-46.3-0.6-69.6,0c-9.9,0.3-19.6-3.3-27-9.9c-8.5-7.1-16.6-14.6-24.6-22.4c-6.9-6.2-7.8-16.7-2.1-24
			c5.6-7.1,15.4-8.7,23.7-3.5c4.3,2.7,8.5,5.6,12.6,8.7c2.5,1.9,4.2,2.5,6.3-0.8c3.1-4.8,8.6-7.6,14.4-7.3c10,0,20.1,0.3,30-0.2
			c3.4-0.3,6.6-1.6,9.2-3.9c7.4-6.7,14.4-13.9,21.3-21.2c5-5.5,12.3-8.6,19.7-8.2c11.1,0.2,22.1,0,33.2,0.1c3,0.4,5.8-1.4,6.8-4.2
			c4.4-9,11.7-14.3,22.1-14.2c7.2,0,14.4,0,21.6,0.1c4.6,0.1,6.9,2.2,6.9,7.2C364.1,277.2,364.3,293.5,364.3,309.8z M231.6,355.2
			v0.7c10.2,0,20.4,0.6,30.6-0.2c7.5-0.6,14.8-2.2,21.9-4.8c7.9-2.8,15.2-7.2,22.9-10.6c3.1-1.1,5-4.1,4.6-7.3
			c-0.1-14.6-0.1-29.2,0-43.7c0-3.9-1-5.8-5.3-5.8c-11.4,0.2-22.8-0.2-34.2,0.3c-3.4,0.4-6.6,1.8-9.2,4.1
			c-6.3,5.4-12.2,11.2-17.6,17.5c-7.4,8.9-16.2,12.8-27.7,11.7c-8.1-0.4-16.1-0.4-24.2,0c-3.2,0-6,1.7-5.3,5
			c0.4,1.9,3.2,3.5,5.2,4.5c1.4,0.7,3.4,0.2,5.2,0.2c9.3,0,18.7-0.7,27.9,0.1c14.6,1.4,27.4-1.9,38.2-12c0.3-0.2,0.5-0.4,0.8-0.6
			c3.3-2.2,6.6-2.9,9.2,0.8c2.6,3.7,0.8,6.3-2.3,8.4c-4.9,3.4-9.5,7.4-14.8,10.1c-4.7,2.6-9.9,4.2-15.3,4.7
			c-15.8,0.6-31.6,0.5-47.4,0c-4.4-0.2-8.6-1.4-12.3-3.7c-9-5.7-17.6-12.3-26.2-18.5c-3.5-2.5-7.4-4.6-10.7-0.5
			c-3.3,4.1-0.4,7.2,2.7,10c6.4,5.9,12.9,11.9,19.4,17.8c7.4,6.6,15.9,11.3,25.9,11.7C206.3,355.6,219,355.2,231.6,355.2z
			 M356.7,310.9h0.2c0-13.5-0.1-27,0-40.6c0-4-1.3-5.7-5.5-5.5c-4.9,0.3-9.8,0-14.7,0.1c-9.1,0.3-13.5,4.8-13.5,13.9
			c-0.1,21.1-0.1,42.1,0,63.2c0,8.8,4.4,13.3,13.2,13.7c4.6,0.2,9.2-0.2,13.7,0.3c5.6,0.7,6.9-1.6,6.8-6.8
			C356.6,336.5,356.8,323.7,356.7,310.9L356.7,310.9z"/>
	</g>
	<g id="Layer_14">
		<path class="st1" d="M257.5,139.5c4.8,4.9,9.7,9.6,14.3,14.7c2.6,2.8,4.7,3.2,7.2,0c1.1-1.6,2.5-2.9,4.2-4c1.6-0.6,3.3-1,5-1.1
			c-0.4,1.6-0.2,3.5-1.1,4.6c-3.3,4.1-7,7.9-11.3,12.8c-7.1-9.5-13.2-17.8-19.4-26C256.7,140,257.1,139.7,257.5,139.5z"/>
	</g>
	<g id="Layer_13">
		<path class="st1" d="M336.5,325.6c4.3,0.3,6.9,2.4,6.9,6.5c0.3,3.4-2.3,6.3-5.7,6.6c-0.3,0-0.6,0-0.9,0c-3.3,0.4-6.3-2-6.6-5.4
			c0-0.3,0-0.7,0-1C330.2,328,332.8,326.1,336.5,325.6z"/>
	</g>
</g>
</svg>
